<svg xmlns="http://www.w3.org/2000/svg" viewBox="0 0 24 24"><path d="M20.79,13.95L18.46,14.57L16.46,12.57L18.46,10.57L20.79,11.19C21.15,11.28 21.52,11.06 21.6,10.7C21.69,10.34 21.47,9.97 21.11,9.89L18.79,9.27L19.41,6.95C19.5,6.59 19.27,6.22 18.91,6.14C18.56,6.05 18.19,6.27 18.1,6.63L17.5,8.95L15.5,10.95L13,8.45V5.86L14.79,4.07C15.08,3.78 15.08,3.29 14.79,3C14.5,2.71 14,2.71 13.71,3L12,4.71L10.29,3C10,2.71 9.5,2.71 9.21,3C8.92,3.29 8.92,3.78 9.21,4.07L11,5.86V8.45L8.5,10.95L6.5,8.95L5.9,6.63C5.81,6.27 5.44,6.05 5.09,6.14C4.73,6.22 4.5,6.59 4.59,6.95L5.21,9.27L2.89,9.89C2.53,9.97 2.31,10.34 2.4,10.7C2.5,11.06 2.85,11.28 3.21,11.19L5.54,10.57L7.54,12.57L5.54,14.57L3.21,13.95C2.85,13.86 2.5,14.08 2.4,14.44C2.31,14.8 2.53,15.17 2.89,15.25L5.21,15.87L4.59,18.19C4.5,18.55 4.73,18.92 5.09,19C5.44,19.09 5.81,18.87 5.9,18.5L6.5,16.19L8.5,14.19L11,16.69V19.28L9.21,21.07C8.92,21.36 8.92,21.86 9.21,22.14C9.5,22.43 10,22.43 10.29,22.14L12,20.43L13.71,22.14C14,22.43 14.5,22.43 14.79,22.14C15.08,21.86 15.08,21.36 14.79,21.07L13,19.28V16.69L15.5,14.19L17.5,16.19L18.1,18.5C18.19,18.87 18.56,19.09 18.91,19C19.27,18.92 19.5,18.55 19.41,18.19L18.79,15.87L21.11,15.25C21.47,15.17 21.69,14.8 21.6,14.44C21.52,14.08 21.15,13.86 20.79,13.95Z" fill="#000000"/></svg>
